<?xml version="1.0" encoding="UTF-8"?>
<svg id="Layer_2" data-name="Layer 2" xmlns="http://www.w3.org/2000/svg" viewBox="0 0 177.51 160">
  <defs>
    <style>
      .cls-1 {
        fill: #60935d;
        stroke-width: 0px;
      }
    </style>
  </defs>
  <g id="Layer_1-2" data-name="Layer 1">
    <path class="cls-1" d="M10.01,64.94c7.18,2.37,16.2,3.95,27.02,3.95.45,0,.9,0,1.35,0v81.11c-.61,0-1.21.01-1.81.01-12.73,0-21.79-2.11-26.49-6.14l-.07-78.92M0,48.05l.09,99.63c6.14,8.55,18.75,12.33,36.49,12.33,3.71,0,7.65-.17,11.81-.49V58.13c-3.67.51-7.51.76-11.35.76-15.27,0-30.7-3.9-37.03-10.84h0ZM122.21,2.89L53.72,41.71c-10.18,5.84-28.86.5-23.4-4.38l46.92-26.99h-24.69C27.51,23.67-4.22,37.51,2.32,45.07c6.15,6.92,30.26,13.34,50.48,8.65v105.27l27.86-19.69V40.97l48.99-28.85c7.44-4.1,30-1.03,18.59,5l-47.36,26.44h0v108.31h17.07l.16-108.21h.13s57.3-31.41,57.3-31.41c7.07-7.44-43.71-17.18-53.33-9.36ZM167.51,32.72v77.92l-35.74,22.89V52.59l35.74-19.87M177.51,15.72l-55.74,30.99v105.11l55.74-35.7V15.72h0Z"/>
  </g>
</svg>