<?xml version="1.0" encoding="UTF-8"?>
<svg id="Layer_2" data-name="Layer 2" xmlns="http://www.w3.org/2000/svg" xmlns:xlink="http://www.w3.org/1999/xlink" viewBox="0 0 395.11 129">
  <defs>
    <style>
      .cls-1 {
        fill: url(#linear-gradient);
        stroke-width: 0px;
      }
    </style>
    <linearGradient id="linear-gradient" x1="0" y1="64.5" x2="395.11" y2="64.5" gradientUnits="userSpaceOnUse">
      <stop offset="0" stop-color="#60935d"/>
      <stop offset=".39" stop-color="#60925e"/>
      <stop offset=".53" stop-color="#609265"/>
      <stop offset=".63" stop-color="#609171"/>
      <stop offset=".71" stop-color="#608f82"/>
      <stop offset=".75" stop-color="#618f8e"/>
      <stop offset=".83" stop-color="#729e9d"/>
      <stop offset=".92" stop-color="#81acaa"/>
      <stop offset="1" stop-color="#87b1af"/>
    </linearGradient>
  </defs>
  <g id="Layer_1-2" data-name="Layer 1">
    <path class="cls-1" d="M50.26,98.14c2.02,2.83,3.02,6.55,3.02,11.16,0,12.87-7.54,19.3-22.61,19.3H3.31c-1.92,0-2.88-1.01-2.88-3.02v-9.22c0-1.05.19-1.8.58-2.23.38-.43,1.15-.65,2.3-.65h24.05c4.7,0,7.06-1.44,7.06-4.32v-.72c0-2.3-1.97-4.51-5.9-6.62l-14.26-7.92c-4.9-2.5-8.5-5.18-10.8-8.06-2.3-2.88-3.46-6.58-3.46-11.09,0-6.72,1.78-11.66,5.33-14.83,3.55-3.17,9.12-4.75,16.7-4.75h24.05c1.92,0,2.88,1.01,2.88,3.02v9.36c0,1.06-.19,1.8-.58,2.23-.38.43-1.15.65-2.3.65h-20.02c-4.7,0-7.06,1.2-7.06,3.6v.72c0,2.11,2.06,4.27,6.19,6.48l14.54,8.64c4.99,2.69,8.5,5.45,10.51,8.28ZM101.81,112.76h-5.76c-3.07,0-5.28-.65-6.62-1.94-1.35-1.3-2.02-3.43-2.02-6.41v-31.82c0-1.06.58-1.58,1.73-1.58h11.23c1.15,0,1.94-.22,2.38-.65s.65-1.17.65-2.23v-9.94c0-2.02-1.01-3.02-3.02-3.02h-11.23c-1.15,0-1.73-.53-1.73-1.58v-13.68c0-2.02-1.01-3.02-3.02-3.02h-12.1c-2.11,0-3.17,1.01-3.17,3.02v13.68c0,1.06-.53,1.58-1.58,1.58h-5.76c-2.02,0-3.02,1.01-3.02,3.02v9.94c0,1.15.22,1.92.65,2.3.43.38,1.22.58,2.38.58h5.76c1.06,0,1.58.53,1.58,1.58v32.69c0,7.49,2.09,13.25,6.26,17.28,4.18,4.03,10.06,6.05,17.64,6.05h8.78c1.15,0,1.94-.22,2.38-.65.43-.43.65-1.17.65-2.23v-9.94c0-2.02-1.01-3.02-3.02-3.02ZM173.09,55.16h-12.1c-2.02,0-3.02,1.01-3.02,3.02v43.63c0,7.3-3.31,10.94-9.94,10.94h-5.33c-2.98,0-5.11-.65-6.41-1.94s-1.94-3.48-1.94-6.55v-46.08c0-2.02-1.01-3.02-3.02-3.02h-12.24c-2.02,0-3.02,1.01-3.02,3.02v46.94c0,7.58,1.89,13.39,5.69,17.42,3.79,4.03,9.38,6.05,16.78,6.05h4.75c2.97,0,5.81-.65,8.5-1.94,2.69-1.3,4.56-3.24,5.62-5.83h.58v4.75c0,2.02,1.01,3.02,3.02,3.02h12.1c2.11,0,3.17-1.01,3.17-3.02V58.18c0-2.02-1.06-3.02-3.17-3.02ZM252,30.39v95.18c0,2.02-1.01,3.02-3.02,3.02h-12.24c-2.02,0-3.02-1.01-3.02-3.02v-4.75h-.58c-1.06,2.59-2.93,4.54-5.62,5.83-2.69,1.3-5.52,1.94-8.5,1.94h-5.9c-7.39,0-12.98-2.02-16.78-6.05-3.79-4.03-5.69-9.84-5.69-17.42v-26.5c0-7.58,1.89-13.39,5.69-17.42,3.79-4.03,9.38-6.05,16.78-6.05h5.9c2.97,0,5.81.65,8.5,1.94,2.69,1.3,4.56,3.24,5.62,5.83h.58V30.39c0-2.02,1.01-3.02,3.02-3.02h12.24c2.02,0,3.02,1.01,3.02,3.02ZM233.71,81.94c0-7.29-3.31-10.94-9.94-10.94h-6.48c-3.07,0-5.23.65-6.48,1.94-1.25,1.3-1.87,3.48-1.87,6.55v24.77c0,3.07.62,5.26,1.87,6.55,1.25,1.3,3.41,1.94,6.48,1.94h6.48c6.62,0,9.94-3.65,9.94-10.94v-19.87ZM271.3,18h12.24c1.59,0,2.88-1.29,2.88-2.88V2.69c0-1.79-.95-2.69-2.83-2.69h-12.28c-1.59,0-2.88,1.29-2.88,2.88v12.24c0,1.59,1.29,2.88,2.88,2.88ZM325.3,55h-11.86c-1.67,0-3.02,1.35-3.02,3.02v43.96c0,7.35-3.26,11.02-9.78,11.02h-6c-2.93,0-5.03-.65-6.31-1.96s-1.91-3.5-1.91-6.6V29.14c0-1.43-.99-2.14-2.98-2.14h-12.19c-1.89,0-2.83.71-2.83,2.14v76.39c0,7.58,1.89,13.39,5.69,17.42,3.79,4.03,9.38,6.05,16.78,6.05h5.08c2.93,0,5.72-.67,8.36-2,2.64-1.33,4.49-3.33,5.53-6h.57v4.89c0,2.07.99,3.11,2.98,3.11h11.91c2.08,0,3.12-1.04,3.12-3.11V58.05c0-2.03-1.04-3.05-3.12-3.05ZM392.09,98.14c-2.02-2.83-5.52-5.59-10.51-8.28l-14.54-8.64c-4.13-2.21-6.19-4.37-6.19-6.48v-.72c0-2.4,2.35-3.6,7.06-3.6h20.02c1.15,0,1.92-.22,2.3-.65.38-.43.58-1.17.58-2.23v-9.36c0-2.02-.96-3.02-2.88-3.02h-24.05c-7.58,0-13.15,1.58-16.7,4.75-3.55,3.17-5.33,8.11-5.33,14.83,0,4.51,1.15,8.21,3.46,11.09,2.3,2.88,5.9,5.57,10.8,8.06l14.26,7.92c3.94,2.11,5.9,4.32,5.9,6.62v.72c0,2.88-2.35,4.32-7.06,4.32h-24.05c-1.15,0-1.92.22-2.3.65-.38.43-.58,1.18-.58,2.23v9.22c0,2.02.96,3.02,2.88,3.02h27.36c15.07,0,22.61-6.43,22.61-19.3,0-4.61-1.01-8.33-3.02-11.16Z"/>
  </g>
</svg>